<svg width="375" height="96" viewBox="0 0 375 96" fill="none" xmlns="http://www.w3.org/2000/svg">
<path d="M13.3601 29.152V49.024C13.3601 52.84 13.4321 55.432 13.5761 56.872C13.9361 60.328 14.8001 61.048 18.1841 61.048C21.7121 61.048 24.1601 60.904 25.5281 60.688C27.7601 60.256 29.4161 59.176 30.5681 57.376C31.5041 56.008 32.4401 54.064 33.2321 51.544L35.3201 51.904C35.0321 55.432 34.4561 59.536 33.5201 64.216C28.7681 64 21.7121 63.856 12.2801 63.856C8.60813 63.856 5.87213 63.928 4.00013 64.072L3.78413 62.272C6.44813 61.192 7.16813 59.824 7.38413 56.368C7.52813 54.784 7.60013 52.12 7.60013 48.304V29.152C7.60013 25.336 7.52813 22.672 7.38413 21.088C7.16813 17.632 6.44813 16.264 3.78413 15.184L4.00013 13.384C5.87213 13.528 8.03213 13.6 10.4081 13.6C12.9281 13.6 15.0881 13.528 16.9601 13.384L17.1761 15.184C14.5121 16.264 13.7921 17.632 13.5761 21.088C13.4321 22.672 13.3601 25.336 13.3601 29.152ZM39.2014 48.736C39.2014 43.768 40.7134 39.592 43.7374 36.208C46.7614 32.824 50.5054 31.168 54.9694 31.168C58.4254 31.168 61.3054 32.32 63.6094 34.624C65.9854 36.856 67.1374 39.736 67.1374 43.192C67.1374 43.912 67.0654 44.488 66.9934 44.848H44.8174C44.7454 45.424 44.6734 46.36 44.6734 47.584C44.6734 51.256 45.6094 54.208 47.5534 56.584C49.4974 58.888 51.9454 60.04 54.8974 60.04C59.5054 60.04 62.3134 58.456 65.2654 54.208L66.9934 55.288C64.6894 61.12 60.2254 65.152 54.1774 65.152C49.7854 65.152 46.1854 63.568 43.3774 60.328C40.5694 57.088 39.2014 53.272 39.2014 48.736ZM45.3214 41.968H60.8014C60.7294 37.288 57.6334 34.408 53.3854 34.408C49.1374 34.408 46.1854 37.576 45.3214 41.968ZM72.0908 58.744C72.0908 57.016 73.0988 55.864 74.7548 55.864C76.3388 55.864 77.3468 56.8 77.8508 58.672C78.4988 60.976 79.9388 62.128 82.1708 62.128C85.3388 62.128 87.3548 60.544 87.3548 57.304C87.3548 54.352 85.6988 52.48 81.0188 50.104C75.7628 47.44 73.0988 44.2 73.0988 40.312C73.0988 37.792 74.0348 35.632 75.8348 33.904C77.7068 32.104 79.9388 31.24 82.5308 31.24C85.0508 31.24 87.2108 31.96 89.0108 33.328C90.2348 34.336 90.8828 35.488 90.8828 36.856C90.8828 38.368 89.8748 39.448 88.3628 39.448C87.0668 39.448 86.0588 38.656 85.3388 37C84.5468 35.2 83.2508 34.264 81.4508 34.264C79.0748 34.264 77.2748 35.992 77.2748 38.368C77.2748 41.176 78.9308 43.264 84.0428 45.784C89.5868 48.448 91.8908 51.328 91.8908 55.936C91.8908 61.408 87.6428 65.152 81.8828 65.152C78.5708 65.152 76.0508 64.36 74.2508 62.848C72.8108 61.624 72.0908 60.256 72.0908 58.744ZM160.792 64.576L159.064 65.152L123.568 22.312V48.376C123.568 52.192 123.64 54.856 123.784 56.44C124.072 59.896 124.792 61.192 127.672 62.344L127.456 64.144C125.224 64 123.28 63.928 121.624 63.928C119.32 63.928 117.448 64 115.936 64.144L115.72 62.344C118.6 61.192 119.248 59.968 119.536 56.44C119.68 54.856 119.752 52.192 119.752 48.376V29.152C119.752 25.624 119.68 23.104 119.536 21.52C119.248 18.064 118.24 16.336 115.36 15.184L115.576 13.384C117.808 13.528 120.616 13.6 124 13.6L156.688 52.84V29.152C156.688 25.336 156.616 22.672 156.472 21.088C156.184 17.632 155.464 16.336 152.584 15.184L152.8 13.384C155.032 13.528 156.976 13.6 158.632 13.6C160.936 13.6 162.808 13.528 164.32 13.384L164.536 15.184C161.656 16.336 161.008 17.56 160.72 21.088C160.576 22.672 160.504 25.336 160.504 29.152V52.768C160.504 57.304 160.576 61.264 160.792 64.576ZM170.194 48.736C170.194 43.768 171.706 39.592 174.73 36.208C177.754 32.824 181.498 31.168 185.962 31.168C189.418 31.168 192.298 32.32 194.602 34.624C196.978 36.856 198.13 39.736 198.13 43.192C198.13 43.912 198.058 44.488 197.986 44.848H175.81C175.738 45.424 175.666 46.36 175.666 47.584C175.666 51.256 176.602 54.208 178.546 56.584C180.49 58.888 182.938 60.04 185.89 60.04C190.498 60.04 193.306 58.456 196.258 54.208L197.986 55.288C195.682 61.12 191.218 65.152 185.17 65.152C180.778 65.152 177.178 63.568 174.37 60.328C171.562 57.088 170.194 53.272 170.194 48.736ZM176.314 41.968H191.794C191.722 37.288 188.626 34.408 184.378 34.408C180.13 34.408 177.178 37.576 176.314 41.968ZM183.442 28.504L181.786 27.784L185.098 14.032C185.746 11.512 186.898 10.216 188.698 10.216C190.354 10.216 191.434 11.44 191.434 13.168C191.434 14.104 191.074 15.112 190.354 16.336L183.442 28.504ZM224.035 37.288C222.811 37.288 220.723 35.992 219.571 35.992C216.043 35.992 213.379 40.168 213.379 46.864V50.248C213.379 53.416 213.451 55.72 213.523 57.232C213.739 60.328 214.459 61.552 217.555 62.416L217.339 64.072C215.683 63.928 213.523 63.856 210.859 63.856C208.699 63.856 206.755 63.928 205.099 64.072L204.883 62.416C207.403 61.336 207.907 60.4 208.123 57.232C208.267 55.72 208.339 53.416 208.339 50.248V48.448C208.339 45.424 208.267 43.192 208.123 41.68C207.907 38.8 207.259 38.08 204.595 37.576V36.064C207.547 34.624 210.139 32.968 212.227 31.024L213.739 31.6C213.523 33.472 213.379 35.776 213.307 38.584L213.379 38.656C215.323 33.976 218.563 31.168 222.019 31.168C224.899 31.168 226.627 32.752 226.627 34.768C226.627 36.424 225.763 37.288 224.035 37.288ZM228.764 48.736C228.764 43.768 230.276 39.592 233.3 36.208C236.324 32.824 240.068 31.168 244.532 31.168C247.988 31.168 250.868 32.32 253.172 34.624C255.548 36.856 256.7 39.736 256.7 43.192C256.7 43.912 256.628 44.488 256.556 44.848H234.38C234.308 45.424 234.236 46.36 234.236 47.584C234.236 51.256 235.172 54.208 237.116 56.584C239.06 58.888 241.508 60.04 244.46 60.04C249.068 60.04 251.876 58.456 254.828 54.208L256.556 55.288C254.252 61.12 249.788 65.152 243.74 65.152C239.348 65.152 235.748 63.568 232.94 60.328C230.132 57.088 228.764 53.272 228.764 48.736ZM234.884 41.968H250.364C250.292 37.288 247.196 34.408 242.948 34.408C238.7 34.408 235.748 37.576 234.884 41.968ZM242.012 28.504L240.356 27.784L243.668 14.032C244.316 11.512 245.468 10.216 247.268 10.216C248.924 10.216 250.004 11.44 250.004 13.168C250.004 14.104 249.644 15.112 248.924 16.336L242.012 28.504ZM271.949 44.632V50.032C271.949 53.344 272.021 55.72 272.093 57.232C272.309 60.328 272.813 61.336 275.405 62.416L275.189 64.072C271.805 63.784 267.053 63.784 263.669 64.072L263.453 62.416C266.045 61.336 266.477 60.472 266.693 57.304C266.837 55.792 266.909 53.416 266.909 50.032V48.448C266.909 45.424 266.837 43.192 266.693 41.68C266.477 38.8 265.829 38.08 263.165 37.576V36.064C266.117 34.624 268.709 32.968 270.797 31.024L272.309 31.6C272.093 39.736 271.949 44.128 271.949 44.632ZM266.549 18.064C265.037 16.552 265.037 13.816 266.549 12.304C268.061 10.792 270.797 10.792 272.309 12.304C273.821 13.816 273.821 16.552 272.309 18.064C270.797 19.576 268.061 19.576 266.549 18.064ZM296.049 34.408C291.081 34.408 286.905 38.944 286.905 46.792C286.905 55.36 291.225 60.544 297.057 60.544C301.881 60.544 304.833 57.232 304.833 52.048V44.56C304.833 37.648 300.873 34.408 296.049 34.408ZM309.873 23.464V48.592C309.873 51.4 309.945 53.56 310.089 55.072C310.305 57.952 310.953 58.672 313.617 59.176V60.688C311.241 61.768 309.009 63.28 306.849 65.152L305.337 64.792L305.049 58.672L304.977 58.6C302.961 62.344 299.145 65.152 295.617 65.152C291.801 65.152 288.489 63.64 285.753 60.688C283.017 57.736 281.649 53.704 281.649 48.592C281.649 43.48 283.161 39.304 286.113 36.064C289.065 32.824 292.593 31.168 296.625 31.168C299.937 31.168 302.673 31.96 304.833 33.544V27.28C304.833 24.328 304.761 22.096 304.617 20.584C304.401 17.704 303.753 16.984 301.089 16.48V14.896C303.969 13.384 306.489 11.656 308.721 9.856L310.233 10.432C310.017 18.568 309.873 22.96 309.873 23.464ZM319.537 48.736C319.537 43.768 321.049 39.592 324.073 36.208C327.097 32.824 330.841 31.168 335.305 31.168C338.761 31.168 341.641 32.32 343.945 34.624C346.321 36.856 347.473 39.736 347.473 43.192C347.473 43.912 347.401 44.488 347.329 44.848H325.153C325.081 45.424 325.009 46.36 325.009 47.584C325.009 51.256 325.945 54.208 327.889 56.584C329.833 58.888 332.281 60.04 335.233 60.04C339.841 60.04 342.649 58.456 345.601 54.208L347.329 55.288C345.025 61.12 340.561 65.152 334.513 65.152C330.121 65.152 326.521 63.568 323.713 60.328C320.905 57.088 319.537 53.272 319.537 48.736ZM325.657 41.968H341.137C341.065 37.288 337.969 34.408 333.721 34.408C329.473 34.408 326.521 37.576 325.657 41.968ZM352.427 58.744C352.427 57.016 353.435 55.864 355.091 55.864C356.675 55.864 357.683 56.8 358.187 58.672C358.835 60.976 360.275 62.128 362.507 62.128C365.675 62.128 367.691 60.544 367.691 57.304C367.691 54.352 366.035 52.48 361.355 50.104C356.099 47.44 353.435 44.2 353.435 40.312C353.435 37.792 354.371 35.632 356.171 33.904C358.043 32.104 360.275 31.24 362.867 31.24C365.387 31.24 367.547 31.96 369.347 33.328C370.571 34.336 371.219 35.488 371.219 36.856C371.219 38.368 370.211 39.448 368.699 39.448C367.403 39.448 366.395 38.656 365.675 37C364.883 35.2 363.587 34.264 361.787 34.264C359.411 34.264 357.611 35.992 357.611 38.368C357.611 41.176 359.267 43.264 364.379 45.784C369.923 48.448 372.227 51.328 372.227 55.936C372.227 61.408 367.979 65.152 362.219 65.152C358.907 65.152 356.387 64.36 354.587 62.848C353.147 61.624 352.427 60.256 352.427 58.744Z" fill="black"/>
<path d="M172 92V84.3H175.377C176.84 84.3 177.852 85.169 177.852 86.687C177.852 88.194 176.84 89.074 175.377 89.074H173.32V92H172ZM173.32 87.897H175.212C176.07 87.897 176.532 87.435 176.532 86.687C176.532 85.928 176.07 85.477 175.212 85.477H173.32V87.897ZM182.974 88.931L181.72 85.675L180.466 88.931H182.974ZM177.914 92L180.961 84.3H182.556L185.548 92H184.162L183.436 90.119H180.015L179.289 92H177.914ZM188.112 87.853H189.927C190.84 87.853 191.324 87.358 191.324 86.621C191.324 85.862 190.84 85.477 189.927 85.477H188.112V87.853ZM186.792 92V84.3H190.257C191.621 84.3 192.644 85.18 192.644 86.39C192.644 87.369 192.204 88.062 191.368 88.337C192.204 88.337 192.534 88.7 192.534 89.426V92H191.214V89.756C191.214 89.184 191.049 89.019 190.477 89.019H188.112V92H186.792ZM194.52 92V84.3H195.84V92H194.52ZM202.154 86.676C202.099 85.84 201.461 85.367 200.614 85.367H200.504C199.624 85.367 199.063 85.84 199.063 86.412C199.063 86.962 199.393 87.248 200.053 87.38L201.241 87.611C202.561 87.875 203.353 88.568 203.353 89.822C203.353 91.153 202.264 92.11 200.449 92.11C198.458 92.11 197.413 91.109 197.358 89.459H198.678C198.711 90.35 199.371 90.933 200.526 90.933H200.636C201.549 90.933 202.033 90.46 202.033 89.899C202.033 89.382 201.758 89.074 201.021 88.92L199.712 88.656C198.392 88.381 197.743 87.633 197.743 86.456C197.743 85.279 198.799 84.19 200.592 84.19C202.385 84.19 203.452 85.202 203.474 86.676H202.154Z" fill="black"/>
</svg>
